<svg width="1885" height="1080" viewBox="0 0 1885 1080" fill="none" xmlns="http://www.w3.org/2000/svg">
    <path d="M1458.52 1029.66C1301.7 1186.47 1301.67 1440.68 1458.44 1597.46C1615.21 1754.23 1869.43 1754.19 2026.24 1597.38C2183.06 1440.56 2183.09 1186.35 2026.32 1029.58C1869.55 872.804 1615.34 872.84 1458.52 1029.66Z" stroke="#BE9AFF" stroke-width="2" stroke-miterlimit="10"/>
    <path d="M1378.48 1017.03C1202.97 1192.54 1202.93 1477.05 1378.39 1652.5C1553.84 1827.96 1838.36 1827.92 2013.86 1652.42C2189.37 1476.91 2189.4 1192.4 2013.95 1016.94C1838.49 841.486 1553.98 841.526 1378.48 1017.03Z" stroke="#BE9AFF" stroke-width="2" stroke-miterlimit="10"/>
    <path d="M1296.76 990.836C1102.57 1185.03 1102.53 1499.83 1296.66 1693.96C1490.8 1888.1 1805.6 1888.05 1999.79 1693.87C2193.98 1499.68 2194.02 1184.88 1999.89 990.74C1805.75 796.604 1490.95 796.647 1296.76 990.836Z" stroke="#BE9AFF" stroke-width="2" stroke-miterlimit="10"/>
    <path d="M1217.84 955.387C1004.96 1168.27 1004.91 1513.36 1217.74 1726.18C1430.56 1939 1775.65 1938.96 1988.53 1726.08C2201.41 1513.2 2201.46 1168.1 1988.64 955.281C1775.82 742.46 1430.72 742.508 1217.84 955.387Z" stroke="#BE9AFF" stroke-width="2" stroke-miterlimit="10"/>
    <path d="M1146.23 915.033C914.665 1146.6 914.613 1522 1146.12 1753.5C1377.62 1985.01 1753.02 1984.95 1984.59 1753.39C2216.16 1521.82 2216.21 1146.42 1984.7 914.917C1753.2 683.412 1377.8 683.464 1146.23 915.033Z" stroke="#BE9AFF" stroke-width="2" stroke-miterlimit="10"/>
    <path d="M1086.44 874.127C836.188 1124.38 836.132 1530.06 1086.32 1780.25C1336.5 2030.43 1742.18 2030.38 1992.44 1780.12C2242.69 1529.87 2242.75 1124.19 1992.56 874.002C1742.38 623.818 1336.69 623.874 1086.44 874.127Z" stroke="#BE9AFF" stroke-width="2" stroke-miterlimit="10"/>
    <path d="M1042.96 836.963C774.021 1105.91 773.961 1541.89 1042.83 1810.76C1311.7 2079.62 1747.68 2079.56 2016.62 1810.62C2285.56 1541.68 2285.62 1105.7 2016.76 836.829C1747.89 567.961 1311.91 568.021 1042.96 836.963Z" stroke="#BE9AFF" stroke-width="2" stroke-miterlimit="10"/>
    <path d="M-211.636 1577.48C5.61346 1577.48 181.729 1401.41 181.729 1184.22C181.729 967.03 5.61346 790.963 -211.636 790.963C-428.885 790.963 -605.001 967.03 -605.001 1184.22C-605.001 1401.41 -428.885 1577.48 -211.636 1577.48Z" stroke="#BE9AFF" stroke-width="2" stroke-miterlimit="10"/>
    <path d="M-61.698 1502.38C205.026 1502.38 421.249 1286.22 421.249 1019.56C421.249 752.914 205.026 536.751 -61.698 536.751C-328.422 536.751 -544.645 752.914 -544.645 1019.56C-544.645 1286.22 -328.422 1502.38 -61.698 1502.38Z" stroke="#BE9AFF" stroke-width="2" stroke-miterlimit="10"/>
    <path d="M73.4048 1494.25C389.59 1494.25 645.909 1238 645.909 921.9C645.909 605.802 389.59 349.554 73.4048 349.554C-242.781 349.554 -499.1 605.802 -499.1 921.9C-499.1 1238 -242.781 1494.25 73.4048 1494.25Z" stroke="#BE9AFF" stroke-width="2" stroke-miterlimit="10"/>
    <path d="M193.449 1541.41C559.109 1541.41 855.536 1245.07 855.536 879.507C855.536 513.947 559.109 217.603 193.449 217.603C-172.211 217.603 -468.637 513.947 -468.637 879.507C-468.637 1245.07 -172.211 1541.41 193.449 1541.41Z" stroke="#BE9AFF" stroke-width="2" stroke-miterlimit="10"/>
    <path d="M298.163 1632.15C713.285 1632.15 1049.81 1295.72 1049.81 880.718C1049.81 465.711 713.285 129.281 298.163 129.281C-116.958 129.281 -453.48 465.711 -453.48 880.718C-453.48 1295.72 -116.958 1632.15 298.163 1632.15Z" stroke="#BE9AFF" stroke-width="2" stroke-miterlimit="10"/>
    <path d="M387.399 1754.81C851.995 1754.81 1228.63 1378.28 1228.63 913.816C1228.63 449.348 851.995 72.8223 387.399 72.8223C-77.197 72.8223 -453.827 449.348 -453.827 913.816C-453.827 1378.28 -77.197 1754.81 387.399 1754.81Z" stroke="#BE9AFF" stroke-width="2" stroke-miterlimit="10"/>
    <path d="M460.885 1897.64C974.942 1897.64 1391.67 1481.03 1391.67 967.111C1391.67 453.195 974.942 36.584 460.885 36.584C-53.1725 36.584 -469.898 453.195 -469.898 967.111C-469.898 1481.03 -53.1725 1897.64 460.885 1897.64Z" stroke="#BE9AFF" stroke-width="2" stroke-miterlimit="10"/>
    <path d="M518.422 2049.02C1081.95 2049.02 1538.79 1592.31 1538.79 1028.93C1538.79 465.557 1081.95 8.84961 518.422 8.84961C-45.1102 8.84961 -501.943 465.557 -501.943 1028.93C-501.943 1592.31 -45.1102 2049.02 518.422 2049.02Z" stroke="#BE9AFF" stroke-width="2" stroke-miterlimit="10"/>
    <path d="M559.789 2197.21C1172.8 2197.21 1669.74 1700.41 1669.74 1087.57C1669.74 474.729 1172.8 -22.0742 559.789 -22.0742C-53.2183 -22.0742 -550.159 474.729 -550.159 1087.57C-550.159 1700.41 -53.2183 2197.21 559.789 2197.21Z" stroke="#BE9AFF" stroke-width="2" stroke-miterlimit="10"/>
    <path d="M584.787 2330.49C1247.25 2330.49 1784.29 1793.61 1784.29 1131.32C1784.29 469.035 1247.25 -67.854 584.787 -67.854C-77.6816 -67.854 -614.718 469.035 -614.718 1131.32C-614.718 1793.61 -77.6816 2330.49 584.787 2330.49Z" stroke="#BE9AFF" stroke-width="2" stroke-miterlimit="10"/>
    <path d="M593.144 2437.23C1305.09 2437.23 1882.23 1860.25 1882.23 1148.5C1882.23 436.753 1305.09 -140.231 593.144 -140.231C-118.799 -140.231 -695.943 436.753 -695.943 1148.5C-695.943 1860.25 -118.799 2437.23 593.144 2437.23Z" stroke="#BE9AFF" stroke-width="2" stroke-miterlimit="10"/>
</svg>
