<svg width="397" height="374" viewBox="0 0 397 374" fill="none" xmlns="http://www.w3.org/2000/svg">
<path d="M388.194 155.63L319.089 31.126C308.4 11.9437 288.563 0 267.235 0H128.975C107.697 0 87.8106 11.9437 77.1714 31.126L8.01668 155.63C-2.67223 174.864 -2.67223 198.7 8.01668 217.882L77.1714 342.386C87.8106 361.62 107.697 373.512 128.975 373.512H267.235C288.563 373.512 308.4 361.62 319.089 342.386L388.194 217.882C398.882 198.7 398.882 174.813 388.194 155.63ZM323.314 261.986C283.492 333.752 194.898 358.467 125.893 317C92.4341 296.938 68.5208 264.52 58.528 225.741C55.197 212.815 53.5564 199.682 53.5564 186.653C53.5564 160.594 60.1189 134.845 72.9953 111.681C92.3347 76.8844 123.457 52.0146 160.744 41.622C173.222 38.1578 185.85 36.3999 198.428 36.3999C223.435 36.3999 248.144 43.2249 270.417 56.6163C339.472 98.0832 363.187 190.169 323.314 261.986Z" fill="url(#paint0_radial_601_9220)"/>
<path d="M244.018 345.592C222.64 345.592 201.013 339.957 181.177 328.065C121.021 291.923 100.289 211.575 135.04 148.96C169.842 86.3465 247.1 64.8374 307.256 100.979C367.462 137.12 388.144 217.469 353.392 280.083C330.076 322.118 287.569 345.592 243.968 345.592H244.018ZM165.168 167.057C140.062 212.402 155.026 270.569 198.577 296.732C242.178 322.894 298.108 307.331 323.265 261.986C335.445 240.012 338.676 214.418 332.363 189.962C326.049 165.506 310.935 144.979 289.856 132.312C246.304 106.149 190.374 121.764 165.168 167.057Z" fill="url(#paint1_linear_601_9220)"/>
<path d="M270.765 242.235C258.435 242.235 245.907 238.978 234.472 232.101C217.619 221.967 205.588 205.68 200.566 186.136C195.545 166.592 198.13 146.168 207.825 128.692C227.91 92.5509 272.505 80.0902 307.306 100.979C342.057 121.867 354.039 168.246 333.954 204.439C320.481 228.689 295.971 242.287 270.765 242.287V242.235ZM270.964 126.986C257.839 126.986 245.012 134.07 238.002 146.737C232.931 155.889 231.589 166.54 234.224 176.726C236.859 186.911 243.123 195.443 251.923 200.716C270.069 211.626 293.386 205.111 303.826 186.239C314.316 167.367 308.052 143.118 289.906 132.26C283.94 128.692 277.427 126.986 270.964 126.986Z" fill="url(#paint2_radial_601_9220)"/>
<defs>
<radialGradient id="paint0_radial_601_9220" cx="0" cy="0" r="1" gradientUnits="userSpaceOnUse" gradientTransform="translate(100.137 62.1368) rotate(58.2055) scale(353.81 341.938)">
<stop stop-color="#FFC428"/>
<stop offset="0.597598" stop-color="#CB5EB4"/>
<stop offset="0.79461"/>
<stop offset="1" stop-color="#7B46FF"/>
</radialGradient>
<linearGradient id="paint1_linear_601_9220" x1="396.176" y1="140.07" x2="328.836" y2="288.882" gradientUnits="userSpaceOnUse">
<stop stop-color="#161C29"/>
<stop offset="1" stop-color="#7B46FF"/>
</linearGradient>
<radialGradient id="paint2_radial_601_9220" cx="0" cy="0" r="1" gradientUnits="userSpaceOnUse" gradientTransform="translate(258.22 152.997) rotate(103.383) scale(78.3328 69.5925)">
<stop stop-color="#7B46FF"/>
<stop offset="0.291667" stop-color="#EC67BC"/>
<stop offset="0.598958" stop-color="#FAC436"/>
<stop offset="1" stop-color="#9661F6"/>
<stop offset="1" stop-color="#7B46FF"/>
</radialGradient>
</defs>
</svg>
