<svg width="736" height="613" viewBox="0 0 736 613" fill="none" xmlns="http://www.w3.org/2000/svg">
<g opacity="0.7">
<g filter="url(#filter0_f_417_9605)">
<path d="M200 305.5C200 106.834 253.462 -463.917 293.056 -463.917C332.649 -463.917 463.188 -587.479 463.188 -388.813C463.188 -190.148 566.054 365.5 526.46 365.5C486.867 365.5 200 504.165 200 305.5Z" fill="#9661F6"/>
</g>
<g filter="url(#filter1_f_417_9605)">
<path d="M284.008 61.1499C284.008 -111.129 302.815 -606.072 316.744 -606.072C330.672 -606.072 376.594 -713.222 376.594 -540.944C376.594 -368.665 412.782 113.181 398.853 113.181C384.924 113.181 284.008 233.428 284.008 61.1499Z" fill="#DCC9FF"/>
</g>
</g>
<defs>
<filter id="filter0_f_417_9605" x="0" y="-701.888" width="735.53" height="1314.46" filterUnits="userSpaceOnUse" color-interpolation-filters="sRGB">
<feFlood flood-opacity="0" result="BackgroundImageFix"/>
<feBlend mode="normal" in="SourceGraphic" in2="BackgroundImageFix" result="shape"/>
<feGaussianBlur stdDeviation="100" result="effect1_foregroundBlur_417_9605"/>
</filter>
<filter id="filter1_f_417_9605" x="184.008" y="-739" width="318.036" height="993" filterUnits="userSpaceOnUse" color-interpolation-filters="sRGB">
<feFlood flood-opacity="0" result="BackgroundImageFix"/>
<feBlend mode="normal" in="SourceGraphic" in2="BackgroundImageFix" result="shape"/>
<feGaussianBlur stdDeviation="50" result="effect1_foregroundBlur_417_9605"/>
</filter>
</defs>
</svg>
