<svg width="1347" height="374" viewBox="0 0 1347 374" fill="none" xmlns="http://www.w3.org/2000/svg">
    <g clip-path="url(#clip0_601_9213)">
    <path d="M584.194 83.7744C591.335 83.7744 598.035 85.1881 604.25 87.97C610.465 90.7975 615.887 94.5826 620.516 99.371C625.144 104.159 628.847 109.814 631.536 116.199C634.269 122.629 635.591 129.424 635.591 136.63V236.685C635.591 243.891 634.225 250.731 631.536 257.116C628.803 263.546 625.144 269.155 620.516 273.944C615.887 278.732 610.421 282.563 604.25 285.345C598.035 288.172 591.379 289.541 584.194 289.541H527.551C520.366 289.541 513.71 288.127 507.494 285.345C501.279 282.563 495.857 278.732 491.229 273.944C486.6 269.155 482.898 263.546 480.209 257.116C477.476 250.686 476.153 243.891 476.153 236.685V136.63C476.153 129.424 477.52 122.584 480.209 116.199C482.942 109.769 486.6 104.159 491.229 99.371C495.857 94.5826 501.279 90.7519 507.494 87.97C513.71 85.1425 520.366 83.7744 527.551 83.7744H584.194ZM595.831 136.675C595.831 133.255 594.729 130.473 592.481 128.238C590.233 126.049 587.5 124.955 584.194 124.955H527.551C524.245 124.955 521.512 126.049 519.264 128.238C517.016 130.428 515.914 133.255 515.914 136.675V236.731C515.914 240.151 517.016 242.933 519.264 245.168C521.468 247.357 524.245 248.451 527.551 248.451H584.194C587.5 248.451 590.233 247.357 592.481 245.168C594.685 242.979 595.831 240.151 595.831 236.731V136.675Z" fill="white"/>
    <path d="M767.479 83.4551C774.62 83.4551 781.32 84.8688 787.536 87.6507C793.751 90.4781 799.173 94.2633 803.801 99.0517C808.43 103.84 812.132 109.449 814.821 115.88C817.51 122.31 818.877 129.196 818.877 136.63V154.05C818.877 161.256 817.51 168.142 814.821 174.618C812.088 181.139 808.43 186.794 803.801 191.583C799.173 196.371 793.707 200.202 787.536 202.984C781.32 205.811 774.664 207.179 767.479 207.179H699.199V282.928C699.199 284.752 698.626 286.303 697.436 287.579C696.29 288.902 694.835 289.54 693.072 289.54H665.742C663.979 289.54 662.48 288.902 661.246 287.579C659.968 286.257 659.351 284.706 659.351 282.928V90.0677C659.351 88.2435 659.968 86.693 661.246 85.4161C662.524 84.1391 664.023 83.4551 665.742 83.4551H767.435H767.479ZM779.116 136.63C779.116 133.209 778.014 130.382 775.766 128.056C773.518 125.776 770.785 124.59 767.479 124.59H699.199V166.044H767.479C770.785 166.044 773.518 164.904 775.766 162.578C778.014 160.253 779.116 157.425 779.116 154.005V136.584V136.63Z" fill="white"/>
    <path d="M985.058 83.4551C986.821 83.4551 988.32 84.0935 989.554 85.4161C990.833 86.7386 991.45 88.2891 991.45 90.0677V118.297C991.45 120.121 990.833 121.626 989.554 122.812C988.276 123.997 986.777 124.636 985.058 124.636H931.633V283.019C931.633 284.843 931.016 286.394 929.737 287.671C928.459 288.948 926.96 289.632 925.241 289.632H897.956C896.193 289.632 894.782 288.993 893.592 287.671C892.446 286.348 891.829 284.798 891.829 283.019V124.636H838.359C836.596 124.636 835.097 124.043 833.863 122.812C832.585 121.626 831.968 120.121 831.968 118.297V90.0677C831.968 88.2435 832.585 86.693 833.863 85.4161C835.142 84.1391 836.64 83.4551 838.359 83.4551H985.058Z" fill="white"/>
    <path d="M1060.88 289.632C1053.91 289.632 1047.3 288.218 1041.13 285.436C1034.91 282.654 1029.49 278.823 1024.86 274.035C1020.23 269.247 1016.53 263.637 1013.84 257.207C1011.11 250.777 1009.79 243.891 1009.79 236.457V90.0677C1009.79 88.2435 1010.4 86.693 1011.68 85.4161C1012.96 84.1391 1014.46 83.4551 1016.18 83.4551H1043.2C1044.96 83.4551 1046.46 84.0935 1047.7 85.4161C1048.97 86.7386 1049.59 88.2891 1049.59 90.0677V236.412C1049.59 239.832 1050.69 242.659 1052.94 244.985C1055.15 247.311 1057.83 248.451 1060.92 248.451H1117.87C1121.18 248.451 1123.87 247.311 1125.98 244.985C1128.1 242.705 1129.2 239.832 1129.2 236.412V90.0677C1129.2 88.2435 1129.82 86.693 1131.1 85.4161C1132.37 84.1391 1133.87 83.4551 1135.59 83.4551H1162.88C1164.64 83.4551 1166.14 84.0935 1167.37 85.4161C1168.65 86.7386 1169.27 88.2891 1169.27 90.0677V236.412C1169.27 243.845 1167.9 250.731 1165.21 257.161C1162.48 263.592 1158.82 269.201 1154.19 273.989C1149.57 278.778 1144.06 282.609 1137.8 285.39C1131.49 288.218 1124.88 289.586 1117.92 289.586H1060.96L1060.88 289.632Z" fill="white"/>
    <path d="M1313.59 145.34C1311.82 145.34 1310.33 144.702 1309.09 143.379C1307.81 142.057 1307.2 140.506 1307.2 138.728V136.63C1307.2 133.21 1306.14 130.382 1303.98 128.056C1301.82 125.73 1299.13 124.59 1295.87 124.59H1238.92C1235.83 124.59 1233.14 125.73 1230.94 128.056C1228.69 130.336 1227.59 133.21 1227.59 136.63V154.051C1227.59 157.471 1228.69 160.298 1230.94 162.624C1233.14 164.95 1235.83 166.09 1238.92 166.09H1295.87C1302.83 166.09 1309.4 167.504 1315.61 170.286C1321.83 173.113 1327.25 176.898 1331.88 181.687C1336.51 186.475 1340.21 192.13 1342.9 198.515C1345.59 204.945 1346.96 211.74 1346.96 218.945V236.366C1346.96 243.8 1345.59 250.686 1342.9 257.116C1340.17 263.546 1336.51 269.156 1331.88 273.944C1327.25 278.733 1321.79 282.563 1315.61 285.345C1309.4 288.173 1302.83 289.541 1295.87 289.541H1238.92C1231.95 289.541 1225.34 288.127 1219.17 285.345C1212.95 282.563 1207.53 278.733 1202.9 273.944C1198.27 269.156 1194.57 263.546 1191.88 257.116C1189.15 250.686 1187.83 243.8 1187.83 236.366V234.268C1187.83 232.444 1188.44 230.939 1189.72 229.617C1191 228.294 1192.5 227.656 1194.22 227.656H1221.24C1223 227.656 1224.5 228.294 1225.74 229.617C1227.01 230.939 1227.63 232.49 1227.63 234.268V236.366C1227.63 239.787 1228.73 242.614 1230.98 244.94C1233.19 247.266 1235.87 248.406 1238.96 248.406H1295.91C1299.22 248.406 1301.91 247.266 1304.02 244.94C1306.14 242.66 1307.24 239.787 1307.24 236.366V218.945C1307.24 215.525 1306.18 212.743 1304.02 210.509C1301.91 208.32 1299.17 207.225 1295.91 207.225H1238.96C1231.99 207.225 1225.38 205.811 1219.21 203.03C1213 200.248 1207.57 196.417 1202.95 191.629C1198.32 186.84 1194.61 181.185 1191.93 174.664C1189.19 168.142 1187.87 161.302 1187.87 154.096V136.675C1187.87 129.288 1189.24 122.356 1191.93 115.926C1194.61 109.495 1198.32 103.886 1202.95 99.0976C1207.57 94.3092 1213 90.4784 1219.21 87.6966C1225.43 84.9147 1231.99 83.501 1238.96 83.501H1295.91C1302.88 83.501 1309.44 84.9147 1315.66 87.6966C1321.87 90.524 1327.3 94.3092 1331.92 99.0976C1336.55 103.886 1340.26 109.495 1342.94 115.926C1345.63 122.356 1347 129.242 1347 136.675V138.773C1347 140.597 1346.43 142.148 1345.24 143.425C1344.09 144.747 1342.64 145.386 1340.87 145.386H1313.59V145.34Z" fill="white"/>
    <path d="M388.194 155.63L319.089 31.126C308.4 11.9437 288.563 0 267.235 0H128.975C107.697 0 87.8106 11.9437 77.1714 31.126L8.01668 155.63C-2.67223 174.864 -2.67223 198.7 8.01668 217.882L77.1714 342.386C87.8106 361.62 107.697 373.512 128.975 373.512H267.235C288.563 373.512 308.4 361.62 319.089 342.386L388.194 217.882C398.882 198.7 398.882 174.813 388.194 155.63ZM323.314 261.986C283.492 333.752 194.898 358.467 125.893 317C92.4341 296.938 68.5208 264.52 58.528 225.741C55.197 212.815 53.5564 199.682 53.5564 186.653C53.5564 160.594 60.1189 134.845 72.9953 111.681C92.3347 76.8844 123.457 52.0146 160.744 41.622C173.222 38.1578 185.85 36.3999 198.428 36.3999C223.435 36.3999 248.144 43.2249 270.417 56.6163C339.472 98.0832 363.187 190.169 323.314 261.986Z" fill="url(#paint0_radial_601_9213)"/>
    <path d="M244.018 345.592C222.64 345.592 201.013 339.957 181.177 328.065C121.021 291.923 100.289 211.574 135.04 148.96C169.842 86.3465 247.1 64.8374 307.256 100.979C367.462 137.12 388.144 217.469 353.392 280.083C330.076 322.118 287.569 345.592 243.968 345.592H244.018ZM165.168 167.057C140.062 212.402 155.026 270.569 198.577 296.732C242.178 322.894 298.108 307.331 323.265 261.986C335.445 240.012 338.676 214.418 332.363 189.962C326.049 165.506 310.935 144.979 289.856 132.312C246.304 106.149 190.374 121.764 165.168 167.057Z" fill="url(#paint1_linear_601_9213)"/>
    <path d="M270.765 242.235C258.435 242.235 245.907 238.978 234.472 232.101C217.619 221.967 205.588 205.68 200.566 186.136C195.545 166.592 198.13 146.168 207.825 128.692C227.91 92.5509 272.505 80.0902 307.306 100.979C342.057 121.867 354.039 168.246 333.954 204.439C320.481 228.689 295.971 242.287 270.765 242.287V242.235ZM270.964 126.986C257.839 126.986 245.012 134.07 238.002 146.737C232.931 155.889 231.589 166.54 234.224 176.726C236.859 186.911 243.123 195.443 251.923 200.716C270.069 211.626 293.386 205.111 303.826 186.239C314.316 167.367 308.052 143.118 289.906 132.26C283.94 128.692 277.427 126.986 270.964 126.986Z" fill="url(#paint2_radial_601_9213)"/>
    </g>
    <defs>
    <radialGradient id="paint0_radial_601_9213" cx="0" cy="0" r="1" gradientUnits="userSpaceOnUse" gradientTransform="translate(100.137 62.1368) rotate(58.2055) scale(353.81 341.938)">
    <stop stop-color="#FFC428"/>
    <stop offset="0.597598" stop-color="#CB5EB4"/>
    <stop offset="0.79461"/>
    <stop offset="1" stop-color="#7B46FF"/>
    </radialGradient>
    <linearGradient id="paint1_linear_601_9213" x1="396.176" y1="140.07" x2="328.836" y2="288.882" gradientUnits="userSpaceOnUse">
    <stop stop-color="#161C29"/>
    <stop offset="1" stop-color="#7B46FF"/>
    </linearGradient>
    <radialGradient id="paint2_radial_601_9213" cx="0" cy="0" r="1" gradientUnits="userSpaceOnUse" gradientTransform="translate(258.22 152.997) rotate(103.383) scale(78.3328 69.5925)">
    <stop stop-color="#7B46FF"/>
    <stop offset="0.291667" stop-color="#EC67BC"/>
    <stop offset="0.598958" stop-color="#FAC436"/>
    <stop offset="1" stop-color="#9661F6"/>
    <stop offset="1" stop-color="#7B46FF"/>
    </radialGradient>
    <clipPath id="clip0_601_9213">
    <rect width="1347" height="374" fill="white"/>
    </clipPath>
    </defs>
</svg>
